<?xml version="1.0" encoding="utf-8"?>
<!-- Generator: Adobe Illustrator 18.1.1, SVG Export Plug-In . SVG Version: 6.00 Build 0)  -->
<svg version="1.1" id="Layer_1" xmlns="http://www.w3.org/2000/svg" xmlns:xlink="http://www.w3.org/1999/xlink" x="0px" y="0px"
	 viewBox="0 0 960 2000" enable-background="new 0 0 960 2000" xml:space="preserve">
<g>
	<path fill="#FFFFFF" d="M193.7,682.2v-24.6c0-6,4.7-10.8,10.6-10.8h25.3v-9.3c-11.8-2.9-27.6-3.4-46.2-17.7
		c-0.2,6.8-14.9,12.3-33.1,12.3s-32.9-5.5-33.1-12.3C75.8,651.9,48,614.5,48,690.4c0,20.8,55.5,30.8,102.1,30.8c0.1,0,0.1,0,0.2,0
		c0.1,0,0.1,0,0.2,0c27.7,0,58.6-3.5,79-10.8V693h-25.3C198.4,693,193.7,688.2,193.7,682.2z"/>
	<path fill="#FFFFFF" d="M105.6,576.3c3.6,9.9,9.2,19.6,16,27.2c1.8,2,3.7,3.7,5.6,5.4c0.5,0.5,1,0.9,1.6,1.4
		c6.6,5.2,13.9,8.4,21.7,8.4c7.7,0,15-3.2,21.6-8.3c0.4-0.3,0.9-0.8,1.3-1.1c2-1.7,4-3.5,5.8-5.6c6.9-7.6,12.5-17.4,16.2-27.4
		c3.1-0.9,6.3-6.8,7.6-14.2c1.4-8.1,0.1-15.2-3-16.4c-0.1-2.6-0.4-5.3-0.8-8c-1.2-22.9-8.3-33.2-18.6-37.8
		c-7.3-5.9-17.1-9.6-30.2-9.6c-13,0-22.8,3.6-30.1,9.3c-11.4,4.8-18.9,16.2-19.3,43.3c-0.1,0.9-0.1,1.7-0.2,2.6
		c-3.4,0.7-4.9,8-3.4,16.5C98.9,569.8,102.4,575.8,105.6,576.3z"/>
	<path fill="#FFFFFF" d="M301.1,654.5h-33v-33c0-1.6-1.4-2.9-3.1-2.9h-24.6c-1.7,0-3.1,1.3-3.1,2.9v33h-33c-1.6,0-2.9,1.4-2.9,3.1
		v24.6c0,1.7,1.3,3.1,2.9,3.1h33v33c0,1.6,1.4,2.9,3.1,2.9H265c1.7,0,3.1-1.3,3.1-2.9v-33h33c1.6,0,2.9-1.4,2.9-3.1v-24.6
		C304,655.9,302.7,654.5,301.1,654.5z"/>
</g>
</svg>
